<svg width="419" height="75" viewBox="0 0 419 75" fill="none" xmlns="http://www.w3.org/2000/svg">
<path d="M28.2345 0V27.5943C25.608 26.2915 22.6393 25.5581 19.4944 25.5581C8.7269 25.5581 0 34.1635 0 44.7791C0 55.3946 8.57551 63.8475 19.2114 63.9967C19.3052 64 19.399 64 19.4944 64H38.9921V56.6423C33.4841 56.394 28.7315 54.1957 26.1198 51.0206C24.5203 52.7582 22.2114 53.8501 19.6425 53.8501C14.8142 53.8501 10.9025 49.9936 10.9025 45.235C10.9025 40.4764 14.8142 36.6182 19.6425 36.6182C22.2789 36.6182 24.642 37.7702 26.2433 39.5905C26.7764 40.1941 27.2241 40.8723 27.5697 41.6072C28.0913 42.7088 28.381 43.9386 28.381 45.235C28.381 46.5994 28.0601 47.8893 27.4874 49.0347C28.1061 49.9319 28.9569 50.7675 30.0134 51.5105C32.4178 53.1995 35.5741 54.1989 38.9921 54.3676V0H28.2345Z" fill="#D65A17"/>
<path d="M41.0078 0V54.3676C44.4258 54.1989 47.5822 53.1995 49.9865 51.5105C51.043 50.7675 51.8938 49.9319 52.5126 49.0347C51.9399 47.8893 51.619 46.5994 51.619 45.235C51.619 43.8705 51.9086 42.7088 52.4303 41.6072C52.7759 40.8723 53.2235 40.1941 53.7567 39.5905C55.3579 37.7702 57.7211 36.6182 60.3574 36.6182C65.1858 36.6182 69.0975 40.4764 69.0975 45.235C69.0975 49.9936 65.1858 53.8501 60.3574 53.8501C57.7886 53.8501 55.4797 52.7582 53.8801 51.0206C51.2685 54.1957 46.5158 56.394 41.0078 56.6423V64H60.5055C60.601 64 60.6948 64 60.7886 63.9967C71.4244 63.8475 80 55.3005 80 44.7791C80 34.1635 71.2731 25.5581 60.5055 25.5581C57.3607 25.5581 54.3919 26.2915 51.7655 27.5943V0H41.0078Z" fill="#D65A17"/>
<path d="M145.37 44.79C145.37 48.03 144.866 50.856 143.858 53.268C142.85 55.644 141.428 57.624 139.592 59.208C137.756 60.756 135.56 61.926 133.004 62.718C130.448 63.474 127.64 63.852 124.58 63.852C123.068 63.852 121.394 63.78 119.558 63.636C117.758 63.528 116.12 63.294 114.644 62.934V26.646C116.12 26.286 117.758 26.052 119.558 25.944C121.394 25.8 123.068 25.728 124.58 25.728C127.64 25.728 130.448 26.124 133.004 26.916C135.56 27.672 137.756 28.842 139.592 30.426C141.428 31.974 142.85 33.954 143.858 36.366C144.866 38.742 145.37 41.55 145.37 44.79ZM125.012 59.262C129.98 59.262 133.688 58.002 136.136 55.482C138.584 52.926 139.808 49.362 139.808 44.79C139.808 40.218 138.584 36.672 136.136 34.152C133.688 31.596 129.98 30.318 125.012 30.318C123.536 30.318 122.384 30.336 121.556 30.372C120.764 30.408 120.206 30.444 119.882 30.48V59.1C120.206 59.136 120.764 59.172 121.556 59.208C122.384 59.244 123.536 59.262 125.012 59.262ZM153.14 63.528V26.106H175.982V30.588H158.378V41.712H174.038V46.086H158.378V59.046H177.332V63.528H153.14ZM209.64 63.528C208.848 62.196 207.93 60.702 206.886 59.046C205.878 57.39 204.78 55.68 203.592 53.916C202.404 52.116 201.162 50.298 199.866 48.462C198.606 46.626 197.346 44.862 196.086 43.17C194.826 41.442 193.602 39.822 192.414 38.31C191.226 36.798 190.128 35.466 189.12 34.314V63.528H183.99V26.106H188.148C189.84 27.906 191.64 30.012 193.548 32.424C195.492 34.8 197.4 37.266 199.272 39.822C201.18 42.342 202.962 44.826 204.618 47.274C206.31 49.722 207.732 51.9 208.884 53.808V26.106H214.014V63.528H209.64ZM233.375 63.852C232.619 63.852 231.791 63.834 230.891 63.798C230.027 63.762 229.145 63.708 228.245 63.636C227.381 63.564 226.517 63.474 225.653 63.366C224.789 63.258 223.997 63.114 223.277 62.934V26.646C223.997 26.466 224.789 26.322 225.653 26.214C226.517 26.106 227.381 26.016 228.245 25.944C229.145 25.872 230.027 25.818 230.891 25.782C231.755 25.746 232.565 25.728 233.321 25.728C235.481 25.728 237.497 25.89 239.369 26.214C241.277 26.538 242.915 27.096 244.283 27.888C245.687 28.644 246.785 29.652 247.577 30.912C248.369 32.172 248.765 33.72 248.765 35.556C248.765 37.608 248.279 39.3 247.307 40.632C246.335 41.928 245.039 42.9 243.419 43.548C245.615 44.196 247.361 45.222 248.657 46.626C249.953 48.03 250.601 50.01 250.601 52.566C250.601 56.31 249.215 59.136 246.443 61.044C243.707 62.916 239.351 63.852 233.375 63.852ZM228.461 46.086V59.262C228.857 59.298 229.325 59.334 229.865 59.37C230.333 59.406 230.873 59.442 231.485 59.478C232.133 59.478 232.871 59.478 233.699 59.478C235.247 59.478 236.705 59.388 238.073 59.208C239.477 58.992 240.701 58.632 241.745 58.128C242.789 57.624 243.617 56.922 244.229 56.022C244.877 55.122 245.201 53.988 245.201 52.62C245.201 51.396 244.967 50.37 244.499 49.542C244.031 48.678 243.347 47.994 242.447 47.49C241.583 46.986 240.539 46.626 239.315 46.41C238.091 46.194 236.723 46.086 235.211 46.086H228.461ZM228.461 41.874H233.969C235.265 41.874 236.489 41.784 237.641 41.604C238.793 41.424 239.783 41.1 240.611 40.632C241.475 40.164 242.141 39.552 242.609 38.796C243.113 38.04 243.365 37.086 243.365 35.934C243.365 34.854 243.113 33.954 242.609 33.234C242.105 32.478 241.403 31.884 240.503 31.452C239.639 30.984 238.613 30.642 237.425 30.426C236.237 30.21 234.977 30.102 233.645 30.102C232.313 30.102 231.269 30.12 230.513 30.156C229.757 30.192 229.073 30.246 228.461 30.318V41.874ZM256.464 44.79C256.464 41.586 256.932 38.76 257.868 36.312C258.84 33.864 260.136 31.83 261.756 30.21C263.412 28.554 265.32 27.312 267.48 26.484C269.676 25.656 271.998 25.242 274.446 25.242C276.858 25.242 279.126 25.656 281.25 26.484C283.41 27.312 285.3 28.554 286.92 30.21C288.54 31.83 289.818 33.864 290.754 36.312C291.726 38.76 292.212 41.586 292.212 44.79C292.212 47.994 291.726 50.82 290.754 53.268C289.818 55.716 288.54 57.768 286.92 59.424C285.3 61.044 283.41 62.268 281.25 63.096C279.126 63.924 276.858 64.338 274.446 64.338C271.998 64.338 269.676 63.924 267.48 63.096C265.32 62.268 263.412 61.044 261.756 59.424C260.136 57.768 258.84 55.716 257.868 53.268C256.932 50.82 256.464 47.994 256.464 44.79ZM261.972 44.79C261.972 47.058 262.26 49.128 262.836 51C263.412 52.836 264.222 54.402 265.266 55.698C266.346 56.994 267.642 58.002 269.154 58.722C270.702 59.406 272.43 59.748 274.338 59.748C276.246 59.748 277.956 59.406 279.468 58.722C280.98 58.002 282.258 56.994 283.302 55.698C284.382 54.402 285.21 52.836 285.786 51C286.362 49.128 286.65 47.058 286.65 44.79C286.65 42.522 286.362 40.47 285.786 38.634C285.21 36.762 284.382 35.178 283.302 33.882C282.258 32.586 280.98 31.596 279.468 30.912C277.956 30.192 276.246 29.832 274.338 29.832C272.43 29.832 270.702 30.192 269.154 30.912C267.642 31.596 266.346 32.586 265.266 33.882C264.222 35.178 263.412 36.762 262.836 38.634C262.26 40.47 261.972 42.522 261.972 44.79ZM318.311 47.868C318.887 48.588 319.607 49.542 320.471 50.73C321.371 51.882 322.289 53.178 323.225 54.618C324.161 56.022 325.079 57.498 325.979 59.046C326.915 60.594 327.707 62.088 328.355 63.528H322.631C321.911 62.16 321.119 60.774 320.255 59.37C319.427 57.966 318.581 56.634 317.717 55.374C316.853 54.078 315.989 52.872 315.125 51.756C314.297 50.64 313.541 49.668 312.857 48.84C312.389 48.876 311.903 48.894 311.399 48.894C310.931 48.894 310.445 48.894 309.941 48.894H305.243V63.528H300.005V26.646C301.481 26.286 303.119 26.052 304.919 25.944C306.755 25.8 308.429 25.728 309.941 25.728C315.197 25.728 319.193 26.718 321.929 28.698C324.701 30.678 326.087 33.63 326.087 37.554C326.087 40.038 325.421 42.162 324.089 43.926C322.793 45.69 320.867 47.004 318.311 47.868ZM310.373 30.318C308.141 30.318 306.431 30.372 305.243 30.48V44.574H308.969C310.769 44.574 312.389 44.484 313.829 44.304C315.269 44.124 316.475 43.782 317.447 43.278C318.455 42.774 319.229 42.072 319.769 41.172C320.309 40.236 320.579 39.012 320.579 37.5C320.579 36.096 320.309 34.926 319.769 33.99C319.229 33.054 318.491 32.316 317.555 31.776C316.655 31.236 315.575 30.858 314.315 30.642C313.091 30.426 311.777 30.318 310.373 30.318ZM356.228 45.114H361.466V62.61C361.034 62.754 360.404 62.916 359.576 63.096C358.784 63.276 357.848 63.456 356.768 63.636C355.724 63.816 354.572 63.96 353.312 64.068C352.052 64.212 350.774 64.284 349.478 64.284C346.85 64.284 344.456 63.852 342.296 62.988C340.136 62.124 338.282 60.864 336.734 59.208C335.186 57.552 333.98 55.518 333.116 53.106C332.288 50.694 331.874 47.922 331.874 44.79C331.874 41.658 332.342 38.886 333.278 36.474C334.25 34.026 335.546 31.974 337.166 30.318C338.786 28.662 340.676 27.402 342.836 26.538C345.032 25.674 347.372 25.242 349.856 25.242C351.548 25.242 353.042 25.35 354.338 25.566C355.67 25.782 356.804 26.034 357.74 26.322C358.676 26.61 359.432 26.898 360.008 27.186C360.62 27.474 361.034 27.69 361.25 27.834L359.576 32.208C358.532 31.524 357.146 30.966 355.418 30.534C353.69 30.066 351.926 29.832 350.126 29.832C348.218 29.832 346.472 30.174 344.888 30.858C343.34 31.542 342.008 32.532 340.892 33.828C339.812 35.124 338.966 36.708 338.354 38.58C337.742 40.416 337.436 42.486 337.436 44.79C337.436 47.022 337.688 49.056 338.192 50.892C338.732 52.728 339.524 54.312 340.568 55.644C341.648 56.94 342.962 57.948 344.51 58.668C346.094 59.388 347.948 59.748 350.072 59.748C351.584 59.748 352.862 59.676 353.906 59.532C354.986 59.352 355.76 59.19 356.228 59.046V45.114ZM369.667 26.106H374.905V63.528H369.667V26.106ZM409.819 63.528C409.027 62.196 408.109 60.702 407.065 59.046C406.057 57.39 404.959 55.68 403.771 53.916C402.583 52.116 401.341 50.298 400.045 48.462C398.785 46.626 397.525 44.862 396.265 43.17C395.005 41.442 393.781 39.822 392.593 38.31C391.405 36.798 390.307 35.466 389.299 34.314V63.528H384.169V26.106H388.327C390.019 27.906 391.819 30.012 393.727 32.424C395.671 34.8 397.579 37.266 399.451 39.822C401.359 42.342 403.141 44.826 404.797 47.274C406.489 49.722 407.911 51.9 409.063 53.808V26.106H414.193V63.528H409.819Z" fill="black"/>
</svg>
