<?xml version="1.0" encoding="UTF-8"?>
<svg id="_Шар_2" data-name="Шар 2" xmlns="http://www.w3.org/2000/svg" viewBox="0 0 1024 1024">
  <defs>
    <style>
      .cls-1 {
        fill: #d65a17;
      }
    </style>
  </defs>
  <path class="cls-1" d="M435.04,303.56v170.08c-15.96-8.03-34-12.55-53.11-12.55-65.43,0-118.46,53.04-118.46,118.47s52.11,117.53,116.74,118.45c.57,.02,1.14,.02,1.72,.02h118.48v-45.35c-33.47-1.53-62.35-15.08-78.22-34.65-9.72,10.71-23.75,17.44-39.36,17.44-29.34,0-53.11-23.77-53.11-53.1s23.77-53.11,53.11-53.11c16.02,0,30.38,7.1,40.11,18.32,3.24,3.72,5.96,7.9,8.06,12.43,3.17,6.79,4.93,14.37,4.93,22.36,0,8.41-1.95,16.36-5.43,23.42,3.76,5.53,8.93,10.68,15.35,15.26,14.61,10.41,33.79,16.57,54.56,17.61V303.56h-65.37Z"/>
  <path class="cls-1" d="M512.66,303.56v335.1c20.77-1.04,39.95-7.2,54.56-17.61,6.42-4.58,11.59-9.73,15.35-15.26-3.48-7.06-5.43-15.01-5.43-23.42s1.76-15.57,4.93-22.36c2.1-4.53,4.82-8.71,8.06-12.43,9.73-11.22,24.09-18.32,40.11-18.32,29.34,0,53.11,23.78,53.11,53.11s-23.77,53.1-53.11,53.1c-15.61,0-29.64-6.73-39.36-17.44-15.87,19.57-44.75,33.12-78.22,34.65v45.35s118.48,0,118.48,0c.58,0,1.15,0,1.72-.02,64.63-.92,116.74-53.6,116.74-118.45,0-65.43-53.03-118.47-118.46-118.47-19.11,0-37.15,4.52-53.11,12.55v-170.08s-65.37,0-65.37,0Z"/>
</svg>